<mxfile host="app.diagrams.net" modified="2023-10-06T14:04:57.058Z" agent="Mozilla/5.0 (Windows NT 10.0; Win64; x64; rv:109.0) Gecko/20100101 Firefox/118.0" etag="bHZXodccQMmXKHhDQ72V" version="22.0.3" type="github">
  <diagram name="第 1 页" id="r55ACCZyM4ePVldsbh40">
    <mxGraphModel dx="997" dy="682" grid="1" gridSize="10" guides="1" tooltips="1" connect="1" arrows="1" fold="1" page="1" pageScale="1" pageWidth="827" pageHeight="1169" math="0" shadow="0">
      <root>
        <mxCell id="0" />
        <mxCell id="1" parent="0" />
        <mxCell id="mzHL01VyfJX1QSNffLvk-3" value="" style="edgeStyle=orthogonalEdgeStyle;rounded=0;orthogonalLoop=1;jettySize=auto;html=1;" edge="1" parent="1" source="mzHL01VyfJX1QSNffLvk-1" target="mzHL01VyfJX1QSNffLvk-2">
          <mxGeometry relative="1" as="geometry" />
        </mxCell>
        <mxCell id="mzHL01VyfJX1QSNffLvk-1" value="" style="ellipse;whiteSpace=wrap;html=1;aspect=fixed;" vertex="1" parent="1">
          <mxGeometry x="40" y="80" width="40" height="40" as="geometry" />
        </mxCell>
        <mxCell id="mzHL01VyfJX1QSNffLvk-5" value="" style="edgeStyle=orthogonalEdgeStyle;rounded=0;orthogonalLoop=1;jettySize=auto;html=1;" edge="1" parent="1" source="mzHL01VyfJX1QSNffLvk-2" target="mzHL01VyfJX1QSNffLvk-4">
          <mxGeometry relative="1" as="geometry" />
        </mxCell>
        <mxCell id="mzHL01VyfJX1QSNffLvk-2" value="receive products" style="whiteSpace=wrap;html=1;" vertex="1" parent="1">
          <mxGeometry x="120" y="80" width="70" height="40" as="geometry" />
        </mxCell>
        <mxCell id="mzHL01VyfJX1QSNffLvk-7" value="" style="edgeStyle=orthogonalEdgeStyle;rounded=0;orthogonalLoop=1;jettySize=auto;html=1;" edge="1" parent="1" source="mzHL01VyfJX1QSNffLvk-4" target="mzHL01VyfJX1QSNffLvk-6">
          <mxGeometry relative="1" as="geometry" />
        </mxCell>
        <mxCell id="mzHL01VyfJX1QSNffLvk-4" value="receive invoice and pack product" style="whiteSpace=wrap;html=1;" vertex="1" parent="1">
          <mxGeometry x="240" y="80" width="75" height="40" as="geometry" />
        </mxCell>
        <mxCell id="mzHL01VyfJX1QSNffLvk-9" value="" style="edgeStyle=orthogonalEdgeStyle;rounded=0;orthogonalLoop=1;jettySize=auto;html=1;" edge="1" parent="1" source="mzHL01VyfJX1QSNffLvk-6" target="mzHL01VyfJX1QSNffLvk-8">
          <mxGeometry relative="1" as="geometry" />
        </mxCell>
        <mxCell id="mzHL01VyfJX1QSNffLvk-6" value="check products" style="whiteSpace=wrap;html=1;" vertex="1" parent="1">
          <mxGeometry x="369.75" y="80" width="87.5" height="40" as="geometry" />
        </mxCell>
        <mxCell id="mzHL01VyfJX1QSNffLvk-11" value="" style="edgeStyle=orthogonalEdgeStyle;rounded=0;orthogonalLoop=1;jettySize=auto;html=1;" edge="1" parent="1" source="mzHL01VyfJX1QSNffLvk-8" target="mzHL01VyfJX1QSNffLvk-10">
          <mxGeometry relative="1" as="geometry" />
        </mxCell>
        <mxCell id="mzHL01VyfJX1QSNffLvk-8" value="deliver note and invoice" style="whiteSpace=wrap;html=1;" vertex="1" parent="1">
          <mxGeometry x="510" y="80" width="89" height="40" as="geometry" />
        </mxCell>
        <mxCell id="mzHL01VyfJX1QSNffLvk-13" value="" style="edgeStyle=orthogonalEdgeStyle;rounded=0;orthogonalLoop=1;jettySize=auto;html=1;" edge="1" parent="1" source="mzHL01VyfJX1QSNffLvk-10" target="mzHL01VyfJX1QSNffLvk-12">
          <mxGeometry relative="1" as="geometry" />
        </mxCell>
        <mxCell id="mzHL01VyfJX1QSNffLvk-10" value="negotiation for best company" style="whiteSpace=wrap;html=1;" vertex="1" parent="1">
          <mxGeometry x="640" y="80" width="86.5" height="40" as="geometry" />
        </mxCell>
        <mxCell id="mzHL01VyfJX1QSNffLvk-15" value="" style="edgeStyle=orthogonalEdgeStyle;rounded=0;orthogonalLoop=1;jettySize=auto;html=1;" edge="1" parent="1" source="mzHL01VyfJX1QSNffLvk-12" target="mzHL01VyfJX1QSNffLvk-14">
          <mxGeometry relative="1" as="geometry" />
        </mxCell>
        <mxCell id="mzHL01VyfJX1QSNffLvk-12" value="select shipping company" style="whiteSpace=wrap;html=1;" vertex="1" parent="1">
          <mxGeometry x="770" y="80" width="100.25" height="40" as="geometry" />
        </mxCell>
        <mxCell id="mzHL01VyfJX1QSNffLvk-17" value="" style="edgeStyle=orthogonalEdgeStyle;rounded=0;orthogonalLoop=1;jettySize=auto;html=1;" edge="1" parent="1" source="mzHL01VyfJX1QSNffLvk-14" target="mzHL01VyfJX1QSNffLvk-16">
          <mxGeometry relative="1" as="geometry" />
        </mxCell>
        <mxCell id="mzHL01VyfJX1QSNffLvk-14" value="produce bill" style="whiteSpace=wrap;html=1;" vertex="1" parent="1">
          <mxGeometry x="910" y="80" width="89.63" height="40" as="geometry" />
        </mxCell>
        <mxCell id="mzHL01VyfJX1QSNffLvk-19" style="edgeStyle=orthogonalEdgeStyle;rounded=0;orthogonalLoop=1;jettySize=auto;html=1;" edge="1" parent="1" source="mzHL01VyfJX1QSNffLvk-16" target="mzHL01VyfJX1QSNffLvk-18">
          <mxGeometry relative="1" as="geometry" />
        </mxCell>
        <mxCell id="mzHL01VyfJX1QSNffLvk-16" value="goods and bill haded over" style="whiteSpace=wrap;html=1;" vertex="1" parent="1">
          <mxGeometry x="1050" y="80" width="85.55" height="40" as="geometry" />
        </mxCell>
        <mxCell id="mzHL01VyfJX1QSNffLvk-18" value="" style="points=[[0.145,0.145,0],[0.5,0,0],[0.855,0.145,0],[1,0.5,0],[0.855,0.855,0],[0.5,1,0],[0.145,0.855,0],[0,0.5,0]];shape=mxgraph.bpmn.event;html=1;verticalLabelPosition=bottom;labelBackgroundColor=#ffffff;verticalAlign=top;align=center;perimeter=ellipsePerimeter;outlineConnect=0;aspect=fixed;outline=throwing;symbol=general;" vertex="1" parent="1">
          <mxGeometry x="1180" y="75" width="50" height="50" as="geometry" />
        </mxCell>
      </root>
    </mxGraphModel>
  </diagram>
</mxfile>
